<?xml version="1.0" encoding="utf-8"?>
<!-- Generator: Adobe Illustrator 16.0.0, SVG Export Plug-In . SVG Version: 6.00 Build 0)  -->
<!DOCTYPE svg PUBLIC "-//W3C//DTD SVG 1.1//EN" "http://www.w3.org/Graphics/SVG/1.1/DTD/svg11.dtd">
<svg version="1.1" id="Capa_1" xmlns="http://www.w3.org/2000/svg" xmlns:xlink="http://www.w3.org/1999/xlink" x="0px" y="0px"
	 width="570.828px" height="304.931px" viewBox="0 0 570.828 304.931" enable-background="new 0 0 570.828 304.931"
	 xml:space="preserve">
<path fill="#999999" d="M35.677,95.086c2.125-0.163,4.175,0.208,6.14,1.106c1.965,0.901,3.723,2.087,5.281,3.56
	c1.554,1.473,2.74,3.234,3.562,5.28c0.817,2.051,1.228,4.138,1.228,6.263v28.247c5.729-2.947,11.667-4.871,17.808-5.772
	c6.14-0.898,12.238-0.898,18.298,0c6.056,0.901,11.951,2.701,17.684,5.404c5.729,2.7,11.052,6.346,15.965,10.929
	c5.729,5.893,10.028,12.242,12.895,19.033c2.863,6.797,4.298,14.534,4.298,23.211c0,8.19-1.596,15.886-4.79,23.089
	c-3.192,7.206-7.491,13.509-12.895,18.912s-11.709,9.663-18.912,12.771c-7.208,3.112-14.821,4.668-22.842,4.668
	c-7.86,0-15.393-1.598-22.597-4.789c-7.207-3.193-13.55-7.491-19.035-12.896c-5.488-5.403-9.867-11.706-13.141-18.912
	c-3.277-7.203-4.913-14.818-4.913-22.843v-82.28c0-1.965,0.491-3.886,1.473-5.771c0.983-1.88,2.211-3.519,3.686-4.912
	c1.473-1.39,3.15-2.496,5.035-3.317C31.785,95.249,33.712,94.923,35.677,95.086z M51.887,192.348c0,3.771,0.737,7.33,2.211,10.686
	c1.473,3.356,3.477,6.262,6.018,8.719c2.537,2.457,5.442,4.42,8.719,5.896c3.273,1.473,6.792,2.208,10.561,2.208
	c3.6,0,7.081-0.735,10.439-2.208c3.354-1.477,6.301-3.439,8.842-5.896c2.537-2.457,4.544-5.362,6.018-8.719
	c1.474-3.355,2.21-6.915,2.21-10.686c0-3.765-0.737-7.324-2.21-10.684c-1.474-3.353-3.481-6.264-6.018-8.718
	c-2.541-2.458-5.488-4.423-8.842-5.896c-3.358-1.474-6.839-2.212-10.439-2.212c-3.769,0-7.288,0.78-10.561,2.333
	c-3.277,1.559-6.183,3.604-8.719,6.143c-2.541,2.539-4.544,5.486-6.018,8.842C52.624,185.515,51.887,188.909,51.887,192.348z"/>
<path fill="#FF9900" d="M164.719,89.047c5.373,0,9.969,2.016,13.796,6.049c3.824,4.029,5.738,8.733,5.738,14.107
	c0,5.376-1.914,10.078-5.738,14.107c-3.827,4.033-8.423,6.049-13.796,6.049c-5.998-0.208-10.909-2.117-14.728-5.738
	c-3.828-3.615-5.738-8.731-5.738-15.351c0.203-5.371,2.326-9.921,6.359-13.639C154.641,90.906,159.338,89.047,164.719,89.047z"/>
<path fill="#999999" d="M164.621,133.646c4.256,0,7.817,1.559,10.684,4.668c2.863,3.112,4.459,6.877,4.79,11.297v86.949
	c0,4.42-1.393,8.104-4.175,11.051c-2.786,2.946-6.551,4.582-11.298,4.912c-4.26,0-7.86-1.309-10.807-3.928
	c-2.947-2.618-4.75-6.303-5.404-11.055V148.63c0.327-4.257,2.046-7.776,5.157-10.562
	C156.677,135.285,160.361,133.812,164.621,133.646z"/>
<path fill="#999999" d="M209.075,252.033c-4.421,0-8.105-1.432-11.053-4.298c-2.947-2.864-4.585-6.67-4.912-11.421v-45.439
	c0.161-7.859,1.842-15.267,5.035-22.227c3.193-6.961,7.449-13.02,12.772-18.177c5.319-5.158,11.544-9.249,18.666-12.281
	c7.124-3.026,14.695-4.705,22.719-5.033c4.583,0,8.39,1.556,11.421,4.666c3.028,3.113,4.705,6.877,5.035,11.297
	c0,4.422-1.559,8.148-4.667,11.175c-3.112,3.032-6.961,4.63-11.543,4.79c-3.769,0-7.288,0.699-10.562,2.087
	c-3.277,1.393-6.14,3.316-8.596,5.774c-2.456,2.454-4.42,5.365-5.895,8.718c-1.474,3.359-2.21,6.999-2.21,10.93v44.701
	c-0.33,4.26-1.927,7.779-4.79,10.562C217.629,250.644,213.822,252.033,209.075,252.033z"/>
<path fill="#999999" d="M329.425,131.862c8.021,0,15.634,1.556,22.843,4.666c7.203,3.112,13.508,7.369,18.912,12.771
	c5.402,5.403,9.702,11.709,12.893,18.915c3.194,7.206,4.791,14.901,4.791,23.086c0,8.189-1.517,15.885-4.543,23.089
	c-3.032,7.206-7.209,13.509-12.527,18.912c-5.323,5.403-11.629,9.663-18.912,12.771c-7.289,3.112-15.106,4.668-23.456,4.668
	c-10.156,0-19.323-2.045-27.509-6.142v28.247c0,4.256-1.56,7.938-4.667,11.051c-3.112,3.109-6.961,4.668-11.543,4.668
	c-4.095,0-7.738-1.438-10.93-4.298c-3.193-2.866-4.874-6.429-5.035-10.687v-82.279c0-8.021,1.597-15.634,4.789-22.843
	c3.193-7.204,7.492-13.509,12.896-18.912c5.403-5.404,11.705-9.702,18.912-12.895C313.54,133.457,321.234,131.862,329.425,131.862z
	 M301.916,191.299c0,4.096,0.736,7.822,2.211,11.176c1.474,3.357,3.476,6.264,6.018,8.721c2.536,2.454,5.484,4.381,8.841,5.771
	c3.354,1.393,6.835,2.086,10.439,2.086c3.93,0,7.529-0.737,10.808-2.211c3.272-1.473,6.139-3.477,8.596-6.018
	c2.455-2.534,4.379-5.484,5.771-8.842c1.39-3.354,2.087-6.914,2.087-10.684c0-3.765-0.736-7.325-2.21-10.684
	c-1.475-3.355-3.438-6.264-5.894-8.721c-2.458-2.455-5.324-4.379-8.597-5.771c-3.278-1.388-6.797-2.087-10.562-2.087
	c-3.931,0-7.577,0.737-10.93,2.212c-3.358,1.473-6.264,3.438-8.72,5.893c-2.456,2.457-4.383,5.324-5.772,8.596
	C302.609,184.016,301.916,187.534,301.916,191.299z"/>
<path fill="#FF9900" d="M414.747,89.046c5.368,0,9.97,2.016,13.797,6.049c3.823,4.029,5.737,8.734,5.737,14.107
	c0,5.376-1.914,10.078-5.737,14.107c-3.827,4.033-8.429,6.049-13.797,6.049c-6.002-0.208-10.906-2.117-14.729-5.738
	c-3.828-3.615-5.737-8.731-5.737-15.352c0.201-5.371,2.328-9.921,6.357-13.639C404.669,90.906,409.365,89.046,414.747,89.046z"/>
<path fill="#999999" d="M414.649,133.646c4.256,0,7.817,1.559,10.685,4.668c2.862,3.112,4.459,6.877,4.789,11.297v86.949
	c0,4.42-1.393,8.104-4.175,11.051c-2.786,2.946-6.552,4.582-11.299,4.912c-4.261,0-7.859-1.309-10.807-3.928
	c-2.947-2.618-4.751-6.303-5.403-11.055V148.63c0.326-4.257,2.045-7.776,5.157-10.562
	C406.705,135.285,410.389,133.812,414.649,133.646z"/>
<path fill="#999999" d="M503.56,132.172c7.858,0,15.388,1.435,22.597,4.298c7.203,2.867,13.508,6.877,18.912,12.035
	c5.403,5.158,9.739,11.262,13.016,18.299c3.274,7.043,4.914,14.655,4.914,22.842v45.438c0,4.262-1.517,7.944-4.545,11.054
	c-3.03,3.112-6.754,4.751-11.175,4.912c-4.422,0-8.228-1.433-11.422-4.298c-3.192-2.864-4.788-6.51-4.788-10.93v-44.21
	c0-3.765-0.7-7.327-2.088-10.687c-1.393-3.353-3.358-6.26-5.896-8.718c-2.54-2.457-5.486-4.419-8.843-5.896
	c-3.358-1.474-6.998-2.209-10.929-2.209c-3.604,0-7.043,0.697-10.316,2.088c-3.278,1.393-6.14,3.233-8.596,5.525
	c-2.456,2.293-4.422,5.077-5.895,8.35c-1.475,3.278-2.21,6.717-2.21,10.316v44.701c0,4.262-1.64,7.982-4.914,11.176
	c-3.276,3.195-7.041,4.79-11.298,4.79c-4.26,0-8.024-1.474-11.297-4.42c-3.278-2.949-4.913-6.548-4.913-10.808v-44.21
	c0.161-8.187,1.758-15.882,4.788-23.089c3.03-7.203,7.204-13.508,12.527-18.912c5.318-5.404,11.582-9.661,18.789-12.773
	C487.184,133.731,495.043,132.172,503.56,132.172z"/>
<path fill="#FF9900" d="M404.432,79.164c0.429-1.502,0.52-5.125,0.518-5.201c-0.146-2.829-1.031-5.36-2.532-7.604
	c-1.987-3.698-4.78-6.67-6.391-8.33c-3.848-3.969-39.165-41.651-107.047-41.651c-67.881,0-103.372,38.319-106.604,41.651
	c-1.609,1.66-4.315,4.631-6.304,8.33c-1.5,2.245-2.341,4.775-2.487,7.604c-0.004,0.076,0.11,3.698,0.538,5.201
	c0.683,2.905,2.005,5.308,3.996,7.188c3.028,2.866,6.915,4.381,11.666,4.544c3.808,0,7.119-1.288,9.946-3.842l0.003,0.008
	c0,0,29.466-39.569,89.111-39.569c59.646,0,89.154,39.569,89.154,39.569v-0.008c3,2.554,6.557,3.842,10.367,3.842
	c4.748-0.163,8.841-1.678,11.867-4.544C402.225,84.472,403.749,82.068,404.432,79.164z"/>
</svg>
